<svg width="52" height="29" viewBox="0 0 52 29" fill="none" xmlns="http://www.w3.org/2000/svg">
<path d="M38.4253 22.5415C34.2653 26.5915 40.2253 31.6915 43.8253 27.2815C47.0753 23.3015 42.0553 19.0115 38.4253 22.5415Z" fill="#1A1A1A"/>
<path d="M18.7653 21.3115C14.2253 21.9715 13.6253 29.4615 19.0453 28.9015C23.8653 28.4015 24.3953 20.5015 18.7653 21.3115Z" fill="#1A1A1A"/>
<path d="M22.0153 7.36157C21.7253 7.36157 21.5453 7.38157 21.4153 7.41157L21.0353 9.39157H21.6753C22.5053 9.39157 23.1153 8.89157 23.1153 8.19157C23.1153 7.62157 22.6253 7.36157 22.0153 7.36157Z" fill="#1A1A1A"/>
<path d="M2.27516 10.5115C3.23613 10.5115 4.01516 9.73247 4.01516 8.77149C4.01516 7.81052 3.23613 7.03149 2.27516 7.03149C1.31418 7.03149 0.535156 7.81052 0.535156 8.77149C0.535156 9.73247 1.31418 10.5115 2.27516 10.5115Z" fill="#1A1A1A"/>
<path d="M51.9353 12.9715C51.6553 11.5515 48.9953 6.83152 47.9453 5.79152C45.8253 3.70152 42.8753 4.03152 40.1353 4.00152C39.9553 2.76152 39.4153 1.56152 38.3253 0.881525C36.8553 -0.0384752 35.2953 0.221525 33.6653 0.161525C24.0453 -0.198475 14.3153 0.161525 4.6853 0.121525C2.9053 0.551525 3.1153 3.25152 4.7253 3.50152C6.2753 3.74152 10.4353 2.67153 10.3653 5.28153C10.3053 7.47153 8.0153 6.80152 6.6653 6.97152C4.5653 7.22152 4.5453 10.1015 6.4953 10.4715C7.7753 10.7115 9.6853 9.96153 10.2353 11.6115C10.6953 13.0115 9.7153 13.8715 8.3853 13.9815C6.0953 14.1615 3.5853 13.8315 1.2753 13.9815C0.6653 14.1115 0.3153 14.6015 -0.00469971 15.0915V16.2115C0.2553 16.7815 0.7353 17.2915 1.3953 17.4015C3.5353 17.7615 6.5453 17.1815 8.7853 17.4215C10.8753 17.6515 10.9053 20.6515 8.6853 20.8715C7.4753 20.9915 5.6653 20.4315 4.9753 21.7315C4.4253 22.7715 4.9353 23.9915 6.0653 24.3015L13.3453 24.3315C14.9853 18.0415 24.8753 17.0715 24.8853 24.7315H35.1853C35.9553 21.0915 40.0053 18.2515 43.6753 19.6015C45.4953 20.2715 46.5353 21.8015 46.8153 23.6715C46.8553 23.9215 46.7053 24.4315 46.9853 24.4215C49.4353 24.4015 50.5753 21.8915 51.0653 19.8615C51.4453 18.3015 52.2253 14.3915 51.9453 12.9515L51.9353 12.9715ZM18.1453 9.19153L17.8853 10.4915H15.3953L14.8553 13.3715H13.3253L14.6853 6.20152H18.8853L18.6253 7.51152H15.9653L15.6353 9.19153H18.1353H18.1453ZM23.0853 9.98152V10.0215C23.5153 10.2015 23.6953 10.6815 23.7653 11.3315C23.8553 12.1315 23.9153 13.0615 24.0453 13.3615H22.4753C22.4153 13.1715 22.3353 12.5515 22.2653 11.6715C22.2053 10.8015 21.9053 10.5315 21.2953 10.5315H20.8253L20.2953 13.3615H18.7753L20.1253 6.33152C20.6053 6.21152 21.3253 6.14152 22.0353 6.14152C22.7453 6.14152 23.4153 6.25152 23.9153 6.55152C24.3853 6.83152 24.7153 7.28152 24.7153 7.95152C24.7153 9.01152 24.0053 9.67152 23.0853 9.97152V9.98152ZM29.8653 9.04152L29.6253 10.3315H27.0753L26.7453 12.0615H29.6053L29.3653 13.3715H24.9753L26.3353 6.20152H30.5753L30.3153 7.51152H27.6153L27.3153 9.04152H29.8653ZM35.8153 7.51152H33.1153L32.8153 9.04152H35.3653L35.1253 10.3315H32.5753L32.2453 12.0615H35.1053L34.8653 13.3715H30.4753L31.8353 6.20152H36.0753L35.8153 7.51152ZM48.0853 13.5715H38.9953L39.9053 6.46152C41.5753 6.54152 43.3453 6.20152 44.9153 6.88152C46.2053 7.44152 46.9553 8.78152 47.6353 9.95152C47.9453 10.4815 48.8953 12.0915 48.8353 12.6015C48.8053 12.8815 48.2953 13.5715 48.0753 13.5715H48.0853Z" fill="#1A1A1A"/>
</svg>
