<svg width="42" height="52" viewBox="0 0 42 52" fill="none" xmlns="http://www.w3.org/2000/svg">
<path d="M18.82 36.76C18.55 36.76 18.27 36.74 18.01 36.7C16.06 36.42 14.41 35.14 13.63 33.38C13.1 33.54 12.54 33.62 11.98 33.62C10.61 33.62 9.29002 33.13 8.26002 32.23C8.06002 32.05 7.87002 31.86 7.69002 31.66L0.77002 45.3L8.75002 45.93L13.97 52L20.47 39.18L19.23 36.74C19.09 36.75 18.95 36.76 18.81 36.76H18.82Z" fill="#1A1A1A"/>
<path d="M33.72 30.51C33.15 30.7 32.55 30.79 31.94 30.79C31.92 30.79 31.9 30.79 31.88 30.79C31.62 32.69 30.4 34.38 28.61 35.19C27.87 35.53 27.08 35.7 26.26 35.7C25.34 35.7 24.43 35.47 23.62 35.05C23.48 34.98 23.34 34.9 23.21 34.81C23.18 34.8 23.16 34.78 23.13 34.76C22.88 35.05 22.61 35.31 22.31 35.55C21.69 36.04 20.98 36.39 20.21 36.58L21 38.13L21.52 39.17L28.02 51.99L33.24 45.92L41.22 45.29L33.71 30.49L33.72 30.51Z" fill="#1A1A1A"/>
<path d="M3.44002 22.94C4.00002 24.88 5.71002 26.17 7.61002 26.3C7.41002 26.83 7.31002 27.4 7.31002 27.96C7.31002 28.55 7.42002 29.14 7.64002 29.7C7.71002 29.88 7.80002 30.06 7.89002 30.24C7.98002 30.4 8.08002 30.55 8.18002 30.7C8.39002 30.99 8.63002 31.25 8.90002 31.49C9.78002 32.26 10.88 32.64 11.97 32.64C12.75 32.64 13.53 32.45 14.23 32.06C14.43 32.99 14.9 33.84 15.58 34.48C16.26 35.13 17.14 35.58 18.14 35.72C18.34 35.75 18.54 35.76 18.73 35.77C18.76 35.77 18.78 35.77 18.81 35.77C18.96 35.77 19.1 35.77 19.25 35.75C19.42 35.74 19.58 35.71 19.74 35.68C21.09 35.41 22.26 34.54 22.92 33.33C23.03 33.45 23.15 33.55 23.28 33.66C23.4 33.76 23.53 33.86 23.66 33.94C23.79 34.03 23.93 34.11 24.07 34.18C24.74 34.53 25.49 34.72 26.25 34.72C26.9 34.72 27.56 34.59 28.19 34.3C30.02 33.46 31.06 31.59 30.92 29.69C31.26 29.77 31.6 29.8 31.94 29.8C32.39 29.8 32.83 29.74 33.26 29.61C33.41 29.57 33.56 29.51 33.71 29.45C33.85 29.39 34 29.33 34.14 29.25C34.82 28.89 35.42 28.35 35.87 27.66C36.97 25.97 36.83 23.83 35.68 22.31C36.57 21.98 37.34 21.39 37.88 20.63C38.42 19.87 38.74 18.94 38.75 17.93V17.89C38.75 15.88 37.47 14.16 35.69 13.5C36.84 11.98 36.98 9.83999 35.89 8.14999C35 6.75999 33.49 5.99999 31.95 5.99999C31.61 5.99999 31.27 6.03999 30.94 6.10999C30.94 5.98999 30.95 5.86999 30.95 5.74999C30.95 3.97999 29.94 2.27999 28.22 1.49999C27.59 1.20999 26.93 1.06999 26.28 1.06999C25.04 1.06999 23.83 1.56999 22.96 2.44999C22.16 0.95999 20.59 -0.0100098 18.85 -0.0100098C18.63 -0.0100098 18.41 0.00999023 18.19 0.0399902C16.19 0.31999 14.67 1.82999 14.27 3.69999C13.57 3.30999 12.79 3.11999 12 3.11999C11.46 3.11999 10.91 3.20999 10.4 3.39999C9.88002 3.58999 9.39002 3.87999 8.95002 4.25999C7.43002 5.57999 6.96002 7.65999 7.63002 9.44999C6.68002 9.50999 5.78002 9.86999 5.04002 10.44C4.30002 11.02 3.73002 11.82 3.45002 12.79C2.88002 14.72 3.62002 16.73 5.15002 17.86C3.62002 18.99 2.88002 21 3.44002 22.93V22.94ZM30.97 24.05C30.88 24.2 30.78 24.36 30.67 24.51C29.78 25.8 28.64 26.91 27.32 27.76C27.08 27.92 26.82 28.07 26.57 28.21C26.34 28.33 26.1 28.45 25.86 28.56C24.38 29.24 22.73 29.61 21 29.61C19.27 29.61 17.62 29.23 16.13 28.56C15.89 28.45 15.66 28.33 15.43 28.21C15.17 28.07 14.92 27.92 14.68 27.77C13.36 26.92 12.22 25.81 11.33 24.52C11.23 24.37 11.13 24.22 11.03 24.07C10.93 23.91 10.84 23.75 10.75 23.59C9.81002 21.91 9.28002 19.97 9.28002 17.9C9.28002 17.66 9.28002 17.41 9.30002 17.17C9.32002 16.88 9.35002 16.59 9.39002 16.3C9.42002 16.04 9.47002 15.78 9.52002 15.52C10.52 10.65 14.54 6.88999 19.53 6.26999C19.71 6.24999 19.9 6.22999 20.09 6.20999C20.27 6.19999 20.45 6.18999 20.63 6.17999C20.75 6.17999 20.88 6.17999 21 6.17999C21.12 6.17999 21.25 6.17999 21.37 6.17999C21.55 6.17999 21.73 6.18999 21.91 6.20999C22.1 6.21999 22.28 6.23999 22.47 6.26999C27.46 6.89999 31.48 10.66 32.48 15.52C32.53 15.78 32.58 16.04 32.61 16.3C32.65 16.59 32.68 16.88 32.7 17.17C32.71 17.41 32.72 17.65 32.72 17.9C32.72 19.96 32.19 21.9 31.25 23.59C31.16 23.75 31.07 23.91 30.97 24.07V24.05Z" fill="#1A1A1A"/>
<path d="M25.7 12.62C25.54 12.65 25.39 12.69 25.24 12.75C25.1 12.81 24.96 12.89 24.83 12.99C24.76 13.04 24.69 13.11 24.62 13.17L19.44 18.35L17.38 16.29C16.94 15.85 16.36 15.66 15.79 15.71C15.58 15.73 15.38 15.78 15.18 15.86C14.95 15.96 14.74 16.1 14.55 16.28C14.04 16.79 13.87 17.49 14.02 18.14C14.07 18.34 14.14 18.54 14.25 18.72C14.33 18.86 14.43 18.98 14.55 19.1L18.03 22.58C18.4 22.95 18.92 23.16 19.44 23.16C19.96 23.16 20.48 22.95 20.85 22.58L27.44 15.99C28.22 15.21 28.22 13.95 27.44 13.17C26.96 12.69 26.31 12.51 25.69 12.61L25.7 12.62Z" fill="#1A1A1A"/>
</svg>
