<svg width="72" height="72" viewBox="0 0 72 72" fill="none" xmlns="http://www.w3.org/2000/svg">
<path d="M36 13.2231C23.5523 13.2231 13.4723 23.3169 13.4723 35.7508C13.4723 48.1846 23.5662 58.2785 36 58.2785C48.4338 58.2785 58.5277 48.1985 58.5277 35.7508C58.5277 23.3031 48.4338 13.2231 36 13.2231ZM27.5262 47.3815C26.9308 47.5062 24.4246 47.4923 23.76 47.4231C23.4554 47.3815 23.22 47.2708 23.0677 46.9938V34.7262C23.04 34.4354 23.2892 34.2415 23.5523 34.1862C24.1338 34.0754 26.7508 34.1031 27.4015 34.1723C27.6923 34.2138 27.9415 34.2831 28.0246 34.6015V46.8692C28.0385 47.1877 27.8031 47.3262 27.5262 47.3954V47.3815ZM48.8769 38.8246C48.6831 39.4754 48.1015 39.8215 47.6862 40.32C47.8523 40.7631 48.1985 41.22 48.2538 41.7185C48.3646 42.48 48.06 43.1308 47.5477 43.6846C47.3262 43.92 46.9108 44.1554 46.7862 44.4185C46.6477 44.7231 46.6477 45.3185 46.5646 45.6923C46.08 47.8938 44.5154 47.7554 42.6323 47.8523C38.5062 48.0738 33.7846 47.9354 29.7 47.2569C29.0492 47.1462 28.8138 47.0631 28.7585 46.3431L28.8 34.6154C28.9523 34.2 29.3538 34.2415 29.6862 34.0892C30.4615 33.7154 30.96 32.22 31.4446 31.4585C32.1785 30.2954 33.1892 29.2015 34.2415 28.3015C35.4738 27.2215 37.1077 26.4323 37.62 24.7569C38.0908 23.1923 37.3708 20.9215 39.6969 20.7969C41.3723 20.7138 41.8846 23.3308 41.8015 24.6185C41.6631 26.6677 40.1262 28.3569 39.6969 30.1708C39.5308 30.8631 39.6969 31.2092 40.4308 31.2785C42.3554 31.4723 47.0215 30.6 48.3092 32.4C49.2092 33.66 48.6692 35.0446 48.06 36.2908C48.5031 37.0662 49.14 37.8831 48.8631 38.8385L48.8769 38.8246ZM11.9215 29.3123C11.88 28.9662 11.8108 28.6477 11.6723 28.3846C11.5338 28.1215 11.3538 27.9 11.1185 27.7338C10.8831 27.5677 10.62 27.4431 10.3292 27.3877C10.08 27.3323 9.87231 27.3185 9.66462 27.36C9.47077 27.3877 9.29077 27.4431 9.13846 27.54C8.97231 27.6231 8.84769 27.7338 8.72308 27.8585C8.61231 27.9692 8.50154 28.1077 8.40462 28.2323C8.32154 28.3569 8.23846 28.4815 8.18308 28.6062C8.11385 28.7308 8.07231 28.8277 8.04462 28.8969C7.85077 29.2708 7.69846 29.5892 7.57385 29.8246C7.44923 30.06 7.33846 30.24 7.24154 30.3785C7.15846 30.5031 7.06154 30.5862 6.97846 30.6277C6.89538 30.6554 6.78462 30.6554 6.66 30.6277C6.52154 30.6 6.41077 30.5446 6.34154 30.4615C6.27231 30.3785 6.20308 30.2954 6.16154 30.1846C6.12 30.0738 6.09231 29.9631 6.09231 29.8385C6.09231 29.7138 6.10615 29.6031 6.13385 29.4923C6.17538 29.3262 6.21692 29.1738 6.28615 29.0215C6.35538 28.8831 6.42462 28.7585 6.52154 28.6615C6.61846 28.5646 6.74308 28.4954 6.88154 28.44C7.02 28.3985 7.2 28.3985 7.39385 28.4262L7.68462 27.0554C7.31077 26.9723 6.97846 26.9723 6.67385 27.0554C6.38308 27.1385 6.12 27.2769 5.89846 27.4846C5.67692 27.6923 5.49692 27.9415 5.35846 28.2323C5.22 28.5231 5.10923 28.8415 5.04 29.1738C4.97077 29.4646 4.95692 29.7692 4.97077 30.0738C4.98462 30.3785 5.05385 30.6692 5.16462 30.9323C5.27538 31.1954 5.44154 31.4308 5.66308 31.6246C5.88462 31.8185 6.14769 31.9431 6.48 32.0262C6.78462 32.0954 7.04769 32.0954 7.28308 32.0262C7.50462 31.9569 7.71231 31.8462 7.89231 31.6938C8.07231 31.5415 8.22462 31.3615 8.36308 31.1538C8.50154 30.9323 8.62615 30.7246 8.73692 30.4892C8.84769 30.2677 8.95846 30.0462 9.05538 29.8385C9.15231 29.6308 9.26308 29.4231 9.37385 29.2708C9.48462 29.1046 9.60923 28.98 9.74769 28.8969C9.88615 28.8138 10.0385 28.7862 10.2185 28.8138C10.3846 28.8554 10.5092 28.9246 10.5923 29.0354C10.6754 29.1462 10.7446 29.2569 10.7862 29.4092C10.8138 29.5477 10.8277 29.7 10.8138 29.8385C10.8138 29.9908 10.7862 30.1292 10.7585 30.2538C10.7169 30.4477 10.6615 30.6277 10.5785 30.7938C10.4954 30.96 10.3846 31.0846 10.2738 31.1954C10.1492 31.3062 10.0108 31.3892 9.83077 31.4308C9.66462 31.4723 9.47077 31.4723 9.26308 31.4308L8.97231 32.8154C9.37385 32.8985 9.73385 32.8985 10.0523 32.8154C10.3708 32.7323 10.6615 32.5662 10.9108 32.3585C11.16 32.1508 11.3538 31.8877 11.5062 31.5692C11.6723 31.2508 11.7969 30.9185 11.8662 30.5585C11.9631 30.1154 11.9908 29.7138 11.9492 29.3538L11.9215 29.3123ZM8.37692 20.6031L7.68462 21.9185L12.4062 27.1938L13.0846 25.8923L12.0185 24.7569L13.1538 22.5554L14.6908 22.7908L15.3831 21.4477L8.37692 20.6031ZM11.2292 23.9262L9.48462 22.0431L12.0185 22.4031L11.2292 23.9262ZM14.0538 14.8985L15.3969 13.4308L14.4969 12.6138L10.8554 16.6292L11.7554 17.4462L13.0985 15.9785L17.0862 19.5923L18.0692 18.5123L14.0815 14.8985H14.0538ZM17.7646 10.0662L16.6015 10.9385L20.5615 16.2277L21.7246 15.3692L17.7646 10.0662ZM27.1108 10.2738C27 10.0523 26.8754 9.87231 26.7369 9.72C26.5846 9.58154 26.4323 9.47077 26.2662 9.40154C26.1 9.33231 25.9338 9.29077 25.7677 9.26308C25.6015 9.23538 25.4354 9.22154 25.2692 9.23538C25.1169 9.23538 24.9785 9.26308 24.84 9.29077C24.7015 9.31846 24.6046 9.33231 24.5215 9.36C24.1062 9.44308 23.76 9.49846 23.4969 9.55385C23.2338 9.59538 23.0262 9.62308 22.8738 9.62308C22.7077 9.62308 22.5969 9.60923 22.5138 9.55385C22.4308 9.49846 22.3754 9.41538 22.3062 9.30462C22.2508 9.18 22.2369 9.05538 22.2369 8.94462C22.2508 8.83385 22.2923 8.72308 22.3477 8.62615C22.4169 8.54308 22.4862 8.44615 22.5831 8.37692C22.68 8.30769 22.7769 8.23846 22.8877 8.19692C23.04 8.12769 23.1923 8.05846 23.3446 8.03077C23.4969 8.00308 23.6354 7.98923 23.7877 8.00308C23.9262 8.01692 24.0508 8.07231 24.1754 8.15539C24.2862 8.23846 24.3969 8.37692 24.4938 8.55692L25.7538 7.96154C25.5877 7.61539 25.3938 7.35231 25.1446 7.17231C24.8954 6.99231 24.6323 6.88154 24.3415 6.82615C24.0369 6.77077 23.7323 6.78462 23.4138 6.84C23.0954 6.90923 22.7769 7.00615 22.4723 7.15846C22.2092 7.28308 21.9462 7.44923 21.7246 7.64308C21.4892 7.83692 21.3092 8.05846 21.1569 8.32154C21.0185 8.57077 20.9354 8.84769 20.9077 9.12462C20.8938 9.41539 20.9492 9.70615 21.0877 10.0246C21.2262 10.3015 21.3785 10.5092 21.5723 10.6477C21.7662 10.7862 21.9738 10.8831 22.2092 10.9385C22.4308 10.98 22.68 11.0077 22.9292 10.98C23.1785 10.9662 23.4277 10.9246 23.6769 10.8831C23.9262 10.8415 24.1754 10.8 24.4108 10.7446C24.6462 10.6892 24.8538 10.6615 25.0615 10.6615C25.2692 10.6615 25.4354 10.6615 25.5877 10.7308C25.74 10.7862 25.8508 10.8969 25.9338 11.0492C26.0031 11.1877 26.0169 11.34 25.9892 11.4646C25.9615 11.6031 25.9062 11.7277 25.8092 11.8385C25.7262 11.9492 25.6154 12.0462 25.4908 12.1292C25.3662 12.2123 25.2415 12.2815 25.1169 12.3369C24.9369 12.42 24.7569 12.4754 24.5908 12.5031C24.4108 12.5446 24.2446 12.5446 24.0785 12.5031C23.9123 12.4615 23.76 12.4062 23.6354 12.2954C23.4969 12.1846 23.3723 12.0323 23.2892 11.8385L22.0154 12.4338C22.1815 12.8077 22.4031 13.0846 22.6662 13.2923C22.9292 13.5 23.22 13.6246 23.5523 13.6938C23.8708 13.7631 24.2031 13.7631 24.5492 13.6938C24.8954 13.6385 25.2415 13.5277 25.56 13.3754C25.9754 13.1815 26.3077 12.96 26.5708 12.7246C26.8338 12.4754 27.0277 12.2262 27.1523 11.9631C27.2908 11.7 27.3462 11.4092 27.3462 11.1323C27.3462 10.8554 27.2769 10.5646 27.1523 10.3015L27.1108 10.2738ZM32.8846 8.23846L32.6631 7.13077L29.9492 7.65692L29.6585 6.14769L32.8015 5.55231L32.58 4.34769L28.0108 5.22L29.2431 11.7138L30.6692 11.4508L30.1569 8.76462L32.8708 8.25231L32.8846 8.23846ZM38.8523 4.37538L37.3569 4.27846L34.4215 10.7169L35.8892 10.8138L36.4985 9.37385L38.9631 9.54L39.3646 11.0354L40.8738 11.1323L38.8385 4.37538H38.8523ZM36.9554 8.32154L37.98 5.96769H37.9938L38.6723 8.44615L36.9554 8.33538V8.32154ZM48.7938 9.24923C48.8769 8.87538 48.9046 8.51538 48.8354 8.19692C48.78 7.85077 48.6692 7.54615 48.4892 7.28308C48.3231 7.00615 48.0877 6.75692 47.8246 6.54923C47.5615 6.32769 47.2569 6.17538 46.9108 6.05077C46.4262 5.88462 45.9692 5.80154 45.5262 5.82923C45.0969 5.87077 44.6954 5.98154 44.3215 6.17538C43.9477 6.38308 43.6154 6.66 43.3385 7.00615C43.0477 7.35231 42.8262 7.75385 42.66 8.22462C42.5077 8.66769 42.4108 9.11077 42.4108 9.56769C42.4108 10.0246 42.48 10.4262 42.6462 10.8C42.7985 11.1877 43.0338 11.5338 43.3523 11.8385C43.6708 12.1431 44.0585 12.3785 44.5431 12.5585C44.9308 12.6969 45.2908 12.7662 45.6508 12.7523C46.0246 12.7523 46.3569 12.6831 46.6754 12.5446C46.9938 12.4062 47.2846 12.2123 47.5339 11.9492C47.7969 11.6862 48.0046 11.3677 48.1846 10.9938L46.8554 10.5231C46.6615 10.9246 46.3985 11.2015 46.0662 11.3815C45.7338 11.5477 45.36 11.5615 44.9446 11.4231C44.64 11.3123 44.3908 11.16 44.2246 10.9523C44.0585 10.7585 43.9338 10.5369 43.8785 10.2877C43.8092 10.0385 43.7954 9.78923 43.8231 9.51231C43.8508 9.24923 43.9062 8.98615 44.0169 8.72308C44.1138 8.44615 44.2385 8.19692 44.3908 7.96154C44.5431 7.72615 44.7231 7.54615 44.9308 7.39385C45.1385 7.24154 45.3738 7.14462 45.6231 7.10308C45.8862 7.06154 46.1769 7.10308 46.4815 7.21385C46.6477 7.28308 46.8 7.35231 46.9246 7.47692C47.0631 7.58769 47.1738 7.71231 47.2569 7.85077C47.34 7.98923 47.3954 8.14154 47.4369 8.30769C47.4785 8.46 47.4785 8.62615 47.4369 8.79231L48.7662 9.26308L48.7938 9.24923ZM51.9508 8.46L51.2446 9.45692L52.8646 10.6062L49.7492 15.0092L50.94 15.84L54.0554 11.4369L55.6754 12.5723L56.3815 11.5754L51.9508 8.44615V8.46ZM58.2923 13.5138L53.5015 18.0692L54.5123 19.1215L59.3031 14.5662L58.2923 13.5138ZM63.6231 20.8108C63.5815 20.3815 63.4154 19.9385 63.1523 19.4954C62.8892 19.0523 62.5846 18.7062 62.2246 18.4569C61.8508 18.2077 61.4769 18.0415 61.0615 17.9585C60.6462 17.8892 60.2308 17.8892 59.7877 17.9862C59.3446 18.0692 58.9154 18.2492 58.5 18.4985C58.0985 18.7477 57.7523 19.0385 57.4615 19.3846C57.1846 19.7308 56.9769 20.1046 56.8662 20.4923C56.7415 20.8938 56.7 21.3092 56.7554 21.7385C56.8108 22.1815 56.9769 22.6108 57.2262 23.0538C57.4892 23.4969 57.7938 23.8431 58.1538 24.0923C58.5138 24.3415 58.9015 24.5077 59.3031 24.5908C59.7185 24.6738 60.1339 24.6738 60.5631 24.5908C61.0062 24.5077 61.4215 24.3277 61.8231 24.0923C62.2385 23.8431 62.5985 23.5385 62.8754 23.1923C63.1662 22.8462 63.3738 22.4723 63.4985 22.0846C63.6231 21.6831 63.6646 21.2677 63.6092 20.8246L63.6231 20.8108ZM62.2246 21.6831C62.1138 21.9185 61.9615 22.1262 61.7538 22.3338C61.56 22.5277 61.3385 22.7077 61.0754 22.8462C60.8262 22.9846 60.5908 23.1092 60.3277 23.1785C60.0646 23.2615 59.8154 23.2892 59.5662 23.2754C59.3031 23.2754 59.0677 23.1923 58.8462 23.0538C58.6108 22.9292 58.4169 22.7215 58.2508 22.4308C58.0846 22.1538 57.9877 21.8769 57.9877 21.6277C57.9877 21.3646 58.0292 21.1292 58.14 20.8938C58.2369 20.6585 58.3892 20.4508 58.5831 20.2708C58.7769 20.0769 58.9985 19.9108 59.2338 19.7723C59.4831 19.62 59.7462 19.5092 60.0092 19.4262C60.2723 19.3431 60.5354 19.3154 60.7985 19.3154C61.0477 19.3154 61.2969 19.3985 61.5185 19.5369C61.74 19.6754 61.9338 19.8831 62.1138 20.16C62.2938 20.4369 62.3631 20.7138 62.3769 20.9631C62.3769 21.2262 62.3354 21.4754 62.2385 21.6969L62.2246 21.6831ZM66.9046 29.5477L62.5985 30.6138L66.24 26.8477L65.8938 25.4492L59.4692 27.0415L59.8015 28.3569L64.0938 27.3046L60.4523 31.0569L60.7985 32.4692L67.2231 30.8769L66.8908 29.5477H66.9046ZM12.8077 44.3215C12.6277 43.8369 12.3923 43.4354 12.0738 43.1308C11.7692 42.8123 11.4231 42.5769 11.0354 42.4246C10.6477 42.2723 10.2323 42.2031 9.77538 42.2031C9.33231 42.2031 8.87539 42.3 8.40462 42.4662C7.96154 42.6323 7.57385 42.8538 7.21385 43.1446C6.86769 43.4215 6.60462 43.74 6.41077 44.1138C6.21692 44.4877 6.09231 44.8892 6.06462 45.3323C6.03692 45.7754 6.10615 46.2323 6.28615 46.7169C6.39692 47.0077 6.57692 47.2846 6.81231 47.5477C7.04769 47.7969 7.36615 47.9769 7.76769 48.1154L7.11692 48.5169L7.43538 49.3892L10.7862 48.1569L9.83077 45.5538L8.82 45.9277L9.31846 47.2985C8.87539 47.4092 8.48769 47.3954 8.16923 47.2292C7.85077 47.0631 7.60154 46.7585 7.43538 46.3154C7.32462 46.0108 7.29692 45.72 7.32462 45.4569C7.36615 45.2077 7.46308 44.9723 7.61539 44.7646C7.75385 44.5569 7.94769 44.3769 8.16923 44.2246C8.39077 44.0862 8.64 43.9615 8.90308 43.8508C9.16615 43.7538 9.45692 43.6846 9.73385 43.6569C10.0108 43.6292 10.2738 43.6431 10.5231 43.6985C10.7723 43.7677 10.9938 43.8785 11.1877 44.0446C11.3815 44.2108 11.5338 44.4462 11.6585 44.7646C11.7692 45.0831 11.7969 45.3877 11.7 45.6923C11.6169 45.9831 11.4092 46.2462 11.0908 46.44L11.5615 47.7554C11.9077 47.5892 12.1846 47.3815 12.3923 47.1185C12.6138 46.8554 12.7662 46.5785 12.8631 46.2738C12.96 45.9692 13.0015 45.6508 13.0015 45.3185C12.9877 44.9862 12.9185 44.6538 12.8077 44.3354V44.3215ZM16.8923 51.7431L13.6108 54.2077C13.2092 54.4985 12.8631 54.6369 12.5585 54.6231C12.2538 54.6092 11.9492 54.3877 11.6308 53.9723C11.4646 53.7369 11.34 53.5292 11.3123 53.3354C11.2708 53.1415 11.2708 52.9754 11.3123 52.8092C11.3677 52.6431 11.4508 52.5046 11.5615 52.38C11.6862 52.2415 11.8108 52.1308 11.9631 52.02L15.2585 49.5554L14.3862 48.3923L11.0908 50.8569C10.3708 51.3969 9.98308 51.9923 9.92769 52.6431C9.87231 53.2938 10.1215 53.9862 10.6477 54.6923C11.1738 55.3985 11.7692 55.8277 12.42 55.9523C13.0708 56.0908 13.7492 55.8831 14.4692 55.3569L17.7508 52.8923L16.8785 51.7292L16.8923 51.7431ZM20.4092 55.1492L14.4138 58.8877L15.5908 59.7738L16.8923 58.9154L18.8585 60.4108L18.36 61.8785L19.5646 62.7923L21.6 56.0354L20.4092 55.1354V55.1492ZM19.2046 59.3169L17.8338 58.2785L19.9938 56.8662H20.0077L19.2046 59.3031V59.3169ZM28.9108 60.2723C28.8138 60.0508 28.6615 59.8569 28.4954 59.6908C28.3015 59.5108 28.08 59.3723 27.7892 59.2615L24.4662 57.9738L22.0708 64.1354L23.4277 64.6615L24.3554 62.2523L25.7123 62.7785C26.0585 62.9169 26.2662 63.0831 26.3631 63.2908C26.4462 63.4985 26.46 63.7615 26.3769 64.1077C26.3492 64.2323 26.3077 64.3708 26.2662 64.5092C26.2246 64.6477 26.1831 64.7723 26.1554 64.9108C26.1277 65.0492 26.0862 65.1738 26.0585 65.3123C26.0308 65.4369 26.0169 65.5615 26.0169 65.6723L27.3738 66.1985C27.3462 66.0877 27.3323 65.9492 27.36 65.8246C27.3738 65.6862 27.4015 65.5477 27.4431 65.4092C27.4846 65.2708 27.5262 65.1323 27.5815 64.9938C27.6231 64.8554 27.6646 64.7446 27.6923 64.6477C27.7338 64.4815 27.7754 64.3292 27.8031 64.1631C27.8308 63.9969 27.8446 63.8308 27.8169 63.6785C27.8031 63.5123 27.7477 63.36 27.6785 63.2354C27.6092 63.0969 27.4985 62.9723 27.3462 62.8615C27.7477 62.8339 28.08 62.7369 28.3292 62.5292C28.5923 62.3215 28.7862 62.0308 28.9246 61.6708C29.0077 61.4354 29.0631 61.2 29.0631 60.9646C29.0631 60.7292 29.0077 60.4939 28.9108 60.2862V60.2723ZM27.4846 61.3385C27.3738 61.6569 27.1938 61.8369 26.9862 61.92C26.7646 61.9892 26.5154 61.9754 26.2108 61.8508L24.7154 61.2831L25.3938 59.5385L26.8892 60.12C27.1938 60.2308 27.3877 60.3831 27.4985 60.5908C27.6092 60.7846 27.5954 61.0338 27.4846 61.3385ZM34.4215 60.5908L32.94 60.4523L29.8385 66.7939L31.3062 66.9323L31.9569 65.52L34.4215 65.7554L34.7815 67.2646L36.2769 67.4031L34.4215 60.5908ZM32.4277 64.4815L33.5077 62.1415H33.5215L34.1308 64.6339L32.4277 64.4677V64.4815ZM43.1308 66.4477L44.5569 66.1846L43.3385 59.6908L41.9954 59.94L42.8123 64.3015H42.7985L39.2677 60.4523L37.8554 60.7154L39.0738 67.2092L40.4169 66.96L39.6 62.6123H39.6277L43.1308 66.4477ZM48.1154 58.8877L49.8877 58.0154L49.3477 56.9215L44.4877 59.3031L45.0277 60.4108L46.8139 59.5385L49.1677 64.3708L50.4831 63.7338L48.1154 58.8877ZM57.6831 57.0323L54.9692 59.3446L53.9169 58.1123L56.3538 56.0354L55.62 55.1769L53.1831 57.2538L52.2692 56.1738L54.9138 53.9031L54.1246 52.9754L50.3585 56.1877L54.6646 61.2138L58.4862 57.9462L57.6831 57.0185V57.0323ZM62.4046 50.7738L60.3692 53.7092L59.0262 52.7815L60.8538 50.1369L59.9262 49.5L58.0985 52.1308L56.9354 51.3277L58.9292 48.4615L57.9185 47.7554L55.0938 51.8262L60.5354 55.5923L63.3877 51.4662L62.3769 50.76L62.4046 50.7738ZM65.6446 43.4769C65.4508 43.1446 65.1739 42.8538 64.8277 42.6046C64.4815 42.3554 64.08 42.1615 63.6231 42.0092C63.0969 41.8292 62.6262 41.7462 62.1969 41.76C61.7538 41.76 61.3662 41.8569 61.02 42.0231C60.6738 42.1892 60.3831 42.4246 60.1338 42.7292C59.8846 43.0338 59.6908 43.3938 59.5523 43.7815L58.6246 46.4815L64.8831 48.6277L65.8108 45.9277C65.9769 45.4569 66.0323 45.0138 66.0046 44.5985C65.9631 44.1969 65.8385 43.8231 65.6446 43.4908V43.4769ZM64.62 45.6231L64.2046 46.8554L60.2585 45.4985L60.6046 44.5154C60.7154 44.1692 60.8677 43.9062 61.0477 43.7123C61.2138 43.5185 61.4215 43.38 61.6431 43.2969C61.8785 43.2138 62.1277 43.2 62.3908 43.2138C62.6677 43.2415 62.9585 43.3108 63.2769 43.4215C63.6231 43.5323 63.9 43.6846 64.1077 43.8508C64.3154 44.0169 64.4677 44.1969 64.5646 44.4046C64.6615 44.5985 64.7169 44.8062 64.7169 45.0138C64.7169 45.2215 64.6754 45.4292 64.6062 45.6231H64.62ZM70.6292 36C70.6292 26.4323 66.7523 17.7785 60.48 11.52C54.2215 5.24769 45.5677 1.37077 36 1.37077C26.4323 1.37077 17.7785 5.24769 11.52 11.52C5.24769 17.7785 1.37077 26.4323 1.37077 36C1.37077 45.5677 5.24769 54.2215 11.52 60.48C17.7923 66.7523 26.4462 70.6154 36 70.6292C45.5677 70.6292 54.2215 66.7523 60.48 60.48C66.7523 54.2077 70.6154 45.5538 70.6292 36H72C72 55.8831 55.8831 72 36 72C16.1169 72 0 55.8831 0 36C0 16.1169 16.1169 0 36 0C55.8831 0 72 16.1169 72 36H70.6292Z" fill="#1E1E1E"/>
</svg>
