<svg width="271" height="44" viewBox="0 0 271 44" fill="none" xmlns="http://www.w3.org/2000/svg">
<path d="M44.5242 1.18819H47.1342V4.87819C46.5242 3.38819 45.6542 2.15819 44.5242 1.18819ZM45.6342 34.4682V41.0582H27.7642L27.5542 41.1382C26.7842 41.6582 25.9342 42.1282 25.0442 42.5682H47.1342V33.7582C46.6542 34.0082 46.1542 34.2482 45.6342 34.4682ZM5.75421 34.0682L6.63421 31.6982C6.34421 31.6382 6.04421 31.5582 5.75421 31.4782V34.0682ZM7.26421 7.81819V2.68819H23.9942L28.0842 1.18819H5.75421V8.52819C6.23421 8.27819 6.73421 8.03819 7.25421 7.81819H7.26421Z" fill="white"/>
<path d="M52.0242 20.1882L51.9942 20.0982C50.4542 15.8882 47.2842 14.6382 43.0642 14.7782C45.3742 12.5782 46.6342 9.70819 45.3142 6.11819L45.2842 6.02819C44.5042 3.89819 43.1542 2.53819 41.4542 1.74819C38.9742 0.598189 35.8742 0.628189 31.9742 2.05819L21.1042 6.03819C22.2242 6.23819 23.3242 6.52819 24.4142 6.90819L26.3342 7.57819L23.2042 18.6382C26.9742 19.0582 29.7242 20.5282 31.5142 23.0682L37.7242 20.7982C40.6042 19.7482 42.3342 20.3682 42.9542 22.0482L42.9842 22.1382C43.6442 23.9582 42.5142 25.5282 39.9042 26.4782L33.6842 28.7582C34.0842 31.5682 33.5142 34.2782 31.9842 36.7082C31.8442 36.9382 31.6842 37.1682 31.5242 37.3882L43.4142 33.0382C50.8142 30.3282 53.9642 25.5082 52.0242 20.1882ZM34.3742 15.1982L28.9742 17.1782L26.9842 11.7282L32.5642 9.68819C35.1342 8.74819 36.8142 9.23819 37.4342 10.9182L37.4642 11.0082C38.1242 12.8282 36.9942 14.2482 34.3742 15.1982Z" fill="#FECD0D"/>
<path d="M5.27422 41.5582L8.07422 34.0282C12.0542 35.3982 15.9842 35.4782 19.6242 34.1882C21.9642 33.3582 22.9342 32.1082 22.4542 30.7482L22.4242 30.6582C21.9642 29.3582 20.6742 28.9982 16.0442 29.5282C8.79423 30.3782 2.95422 30.3182 0.654224 23.8382L0.624224 23.7482C-1.44578 17.8982 1.68422 12.0282 9.24422 9.34819C14.5942 7.44819 19.2942 7.40819 23.6842 8.93819L21.5042 16.6482C17.9042 15.6482 14.3742 15.6782 11.5842 16.6682C9.46422 17.4182 8.75422 18.6882 9.15422 19.8082L9.18422 19.8982C9.69422 21.3382 10.9942 21.5882 15.7142 21.0282C23.5142 20.0382 28.8442 20.7782 30.9342 26.6782L30.9642 26.7682C33.2442 33.1982 29.5142 38.8282 21.8642 41.5382C16.2842 43.5182 10.3542 43.6382 5.25422 41.5382L5.27422 41.5582Z" fill="white"/>
<path d="M54.8842 31.4982L59.0542 26.5182C61.7142 28.6382 64.6842 29.7582 67.8142 29.7582C69.8242 29.7582 70.9042 29.0682 70.9042 27.9082V27.8282C70.9042 26.7082 70.0142 26.0882 66.3542 25.2382C60.6042 23.9282 56.1642 22.3082 56.1642 16.7482V16.6682C56.1642 11.6482 60.1342 8.01819 66.6242 8.01819C71.2142 8.01819 74.8042 9.25819 77.7342 11.6082L73.9942 16.8982C71.5242 15.1582 68.8242 14.2382 66.4342 14.2382C64.6242 14.2382 63.7342 15.0082 63.7342 15.9782V16.0582C63.7342 17.2882 64.6642 17.8382 68.4042 18.6782C74.6142 20.0282 78.4742 22.0382 78.4742 27.0882V27.1682C78.4742 32.6882 74.1142 35.9682 67.5542 35.9682C62.7642 35.9682 58.2142 34.4682 54.8942 31.4882L54.8842 31.4982Z" fill="white"/>
<path d="M82.2442 8.49819H89.7742V35.5082H82.2442V8.49819Z" fill="white"/>
<path d="M93.7842 22.0882V22.0082C93.7842 14.1382 99.9542 7.95819 108.334 7.95819C113.084 7.95819 116.434 9.42819 119.294 11.8982L114.894 17.1882C112.964 15.5682 111.034 14.6382 108.374 14.6382C104.474 14.6382 101.464 17.9182 101.464 22.0482V22.1282C101.464 26.4882 104.514 29.6182 108.794 29.6182C110.604 29.6182 111.994 29.2282 113.114 28.4982V25.2182H107.784V19.7382H120.214V31.8982C117.354 34.2482 113.384 36.0682 108.484 36.0682C100.074 36.0682 93.7842 30.2782 93.7842 22.0982V22.0882Z" fill="white"/>
<path d="M124.384 8.49819H131.374L142.484 22.7782V8.49819H149.894V35.5082H143.334L131.794 20.6882V35.5082H124.384V8.49819Z" fill="white"/>
<path d="M154.674 8.49819H168.524C171.924 8.49819 174.314 9.34819 175.894 10.9282C176.974 12.0082 177.634 13.4382 177.634 15.2882V15.3682C177.634 18.4982 175.864 20.3482 173.464 21.3882C176.744 22.4682 178.824 24.3182 178.824 27.9882V28.0682C178.824 32.6982 175.044 35.5182 168.594 35.5182H154.664V8.49819H154.674ZM166.674 19.2682C168.954 19.2682 170.224 18.4982 170.224 16.9182V16.8382C170.224 15.3682 169.064 14.5182 166.824 14.5182H161.964V19.2682H166.674ZM167.754 29.4982C170.034 29.4982 171.344 28.6082 171.344 27.0282V26.9482C171.344 25.4782 170.184 24.5182 167.674 24.5182H161.964V29.4982H167.754Z" fill="#FECD0D"/>
<path d="M182.264 8.49819H195.034C199.164 8.49819 202.024 9.57819 203.834 11.4282C205.414 12.9682 206.224 15.0582 206.224 17.7182V17.7982C206.224 21.9282 204.024 24.6682 200.664 26.0982L207.104 35.5182H198.464L193.024 27.3382H189.744V35.5182H182.254V8.49819H182.264ZM194.694 21.4682C197.244 21.4682 198.704 20.2282 198.704 18.2682V18.1882C198.704 16.0682 197.164 14.9882 194.654 14.9882H189.754V21.4682H194.694Z" fill="#FECD0D"/>
<path d="M210.164 8.49819H217.694V35.5082H210.164V8.49819Z" fill="#FECD0D"/>
<path d="M229.224 15.0582H221.124V8.49819H244.824V15.0582H236.724V35.5082H229.234V15.0582H229.224Z" fill="#FECD0D"/>
<path d="M248.094 8.49819H269.824V14.8682H255.504V18.9582H268.474V24.8582H255.504V29.1382H270.014V35.5082H248.094V8.49819Z" fill="#FECD0D"/>
</svg>
